<svg width="130" height="140" viewBox="0 0 130 140" fill="none" xmlns="http://www.w3.org/2000/svg">
<g clip-path="url(#clip0_181_58)">
<mask id="mask0_181_58" style="mask-type:luminance" maskUnits="userSpaceOnUse" x="0" y="0" width="130" height="140">
<path d="M130 0H0V140H130V0Z" fill="white"/>
</mask>
<g mask="url(#mask0_181_58)">
<mask id="mask1_181_58" style="mask-type:luminance" maskUnits="userSpaceOnUse" x="0" y="0" width="130" height="140">
<path d="M130 0H0V140H130V0Z" fill="white"/>
</mask>
<g mask="url(#mask1_181_58)">
<path d="M98 50.4999C98 76.7331 76.7331 98 50.5 98C24.2669 98 3 76.7331 3 50.4999C3 24.2669 24.2669 3 50.5 3C76.7331 3 98 24.2669 98 50.4999Z" fill="#78B9EB"/>
<path d="M50.1043 0C22.5945 0.0329585 0.301358 24.0409 0.270752 53.6667C0.270752 82.5508 46.5401 136.946 48.5119 139.25C48.7149 139.486 48.9611 139.675 49.2351 139.804C49.5093 139.933 49.8051 140 50.1043 140C50.4033 140 50.6993 139.933 50.9733 139.804C51.2473 139.675 51.4935 139.486 51.6965 139.25C53.6683 136.946 99.9377 82.5506 99.9377 53.6667C99.9071 24.0409 77.6139 0.0329585 50.1043 0ZM50.1043 4.66667C75.2219 4.69642 95.5767 26.6169 95.6043 53.6667C95.6043 77.8705 58.3371 124.237 50.1043 134.181C41.8715 124.237 4.6041 77.8773 4.6041 53.6667C4.63172 26.6169 24.9865 4.69642 50.1043 4.66667Z" fill="#1A6FB0"/>
</g>
</g>
<path d="M64.4758 58.046L61.1127 51.9852C64.6422 56.8888 71.1731 57.1325 74.9859 52.5991C78.4673 48.4598 78.2896 41.9592 74.5873 38.0659C70.8868 34.1744 65.0719 34.3718 61.5898 38.5118C58.9148 41.6925 58.4296 46.2149 59.9357 49.8639L51.8003 35.2029L63.8729 31.3076C67.6221 30.098 69.394 25.2993 67.4891 21.4826C66.1059 18.7113 63.2351 17.3902 60.5084 18.2702L42.2313 24.1673C37.4925 25.6965 35.3703 31.856 37.9723 36.5455L43.4966 46.5009L33.8083 53.2225C45.464 53.522 53.8856 57.49 64.4758 58.046ZM17.6121 64.799C44.1077 56.3773 54.1143 73.379 83.4667 64.812C84.5627 64.4922 85.219 63.2394 84.933 62.0141C84.647 60.7889 83.5266 60.0549 82.4308 60.3746C54.2307 68.6058 44.2103 51.5768 16.4906 60.3876C15.4012 60.7338 14.769 62.002 15.0787 63.2203C15.3885 64.4387 16.5231 65.1452 17.6121 64.799ZM82.4308 71.0756C54.1788 79.3217 44.2652 62.2601 16.4906 71.0886C15.4012 71.4348 14.769 72.703 15.0787 73.9213C15.3883 75.1395 16.523 75.8464 17.6121 75.5C44.1077 67.0783 54.1143 84.08 83.4667 75.513C84.5627 75.1932 85.219 73.9404 84.933 72.7151C84.647 71.4897 83.5266 70.7558 82.4308 71.0756Z" fill="black"/>
</g>
<defs>
<clipPath id="clip0_181_58">
<rect width="130" height="140" fill="white"/>
</clipPath>
</defs>
</svg>
