<svg width="130" height="140" viewBox="0 0 130 140" fill="none" xmlns="http://www.w3.org/2000/svg">
<g clip-path="url(#clip0_316_20)">
<mask id="mask0_316_20" style="mask-type:luminance" maskUnits="userSpaceOnUse" x="0" y="0" width="130" height="140">
<path d="M130 0H0V140H130V0Z" fill="white"/>
</mask>
<g mask="url(#mask0_316_20)">
<mask id="mask1_316_20" style="mask-type:luminance" maskUnits="userSpaceOnUse" x="0" y="0" width="130" height="140">
<path d="M130 0H0V140H130V0Z" fill="white"/>
</mask>
<g mask="url(#mask1_316_20)">
<mask id="mask2_316_20" style="mask-type:luminance" maskUnits="userSpaceOnUse" x="0" y="0" width="130" height="140">
<path d="M130 0H0V140H130V0Z" fill="white"/>
</mask>
<g mask="url(#mask2_316_20)">
<path d="M98 50.4999C98 76.7331 76.7331 98 50.5 98C24.2669 98 3 76.7331 3 50.4999C3 24.2669 24.2669 3 50.5 3C76.7331 3 98 24.2669 98 50.4999Z" fill="#78B9EB"/>
<path d="M50.1043 0C22.5945 0.0329585 0.301358 24.0409 0.270752 53.6667C0.270752 82.5508 46.5401 136.946 48.5119 139.25C48.7149 139.486 48.9611 139.675 49.2351 139.804C49.5093 139.933 49.8051 140 50.1043 140C50.4033 140 50.6993 139.933 50.9733 139.804C51.2473 139.675 51.4935 139.486 51.6965 139.25C53.6683 136.946 99.9377 82.5506 99.9377 53.6667C99.9071 24.0409 77.6139 0.0329585 50.1043 0ZM50.1043 4.66667C75.2219 4.69642 95.5767 26.6169 95.6043 53.6667C95.6043 77.8705 58.3371 124.237 50.1043 134.181C41.8715 124.237 4.6041 77.8773 4.6041 53.6667C4.63172 26.6169 24.9865 4.69642 50.1043 4.66667Z" fill="#1A6FB0"/>
</g>
</g>
<path d="M49.5 48.1055C36.1727 48.1055 25.3301 58.9481 25.3301 72.2754C25.3301 78.333 30.2588 83.2617 36.3164 83.2617H62.6836C68.7412 83.2617 73.6699 78.333 73.6699 72.2754C73.6699 58.9481 62.8273 48.1055 49.5 48.1055ZM62.6836 70.0781H53V80H46V70.0781H36.3164V63.5H46V53.5H53V63.5H62.6836V70.0781ZM20.7891 59.0918C15.9417 59.0918 12 54.163 12 48.1055C12 42.0479 15.9417 37.1191 20.7891 37.1191C25.6364 37.1191 29.5781 42.0479 29.5781 48.1055C29.5781 54.163 25.6364 59.0918 20.7891 59.0918ZM38.5137 43.7109C33.6664 43.7109 29.7246 38.7822 29.7246 32.7246C29.7246 26.667 33.6664 21.7383 38.5137 21.7383C43.361 21.7383 47.3027 26.667 47.3027 32.7246C47.3027 38.7822 43.361 43.7109 38.5137 43.7109ZM60.4863 43.7109C55.639 43.7109 51.6973 38.7822 51.6973 32.7246C51.6973 26.667 55.639 21.7383 60.4863 21.7383C65.3336 21.7383 69.2754 26.667 69.2754 32.7246C69.2754 38.7822 65.3336 43.7109 60.4863 43.7109ZM78.2109 59.0918C73.3636 59.0918 69.4219 54.163 69.4219 48.1055C69.4219 42.0479 73.3636 37.1191 78.2109 37.1191C83.0583 37.1191 87 42.0479 87 48.1055C87 54.163 83.0583 59.0918 78.2109 59.0918Z" fill="black"/>
</g>
</g>
<defs>
<clipPath id="clip0_316_20">
<rect width="130" height="140" fill="white"/>
</clipPath>
</defs>
</svg>
