<svg width="130" height="140" viewBox="0 0 130 140" fill="none" xmlns="http://www.w3.org/2000/svg">
<g clip-path="url(#clip0_181_58)">
<mask id="mask0_181_58" style="mask-type:luminance" maskUnits="userSpaceOnUse" x="0" y="0" width="130" height="140">
<path d="M130 0H0V140H130V0Z" fill="white"/>
</mask>
<g mask="url(#mask0_181_58)">
<mask id="mask1_181_58" style="mask-type:luminance" maskUnits="userSpaceOnUse" x="0" y="0" width="130" height="140">
<path d="M130 0H0V140H130V0Z" fill="white"/>
</mask>
<g mask="url(#mask1_181_58)">
<path d="M98 50.4999C98 76.7331 76.7331 98 50.5 98C24.2669 98 3 76.7331 3 50.4999C3 24.2669 24.2669 3 50.5 3C76.7331 3 98 24.2669 98 50.4999Z" fill="#78B9EB"/>
<path d="M50.1043 0C22.5945 0.0329585 0.301358 24.0409 0.270752 53.6667C0.270752 82.5508 46.5401 136.946 48.5119 139.25C48.7149 139.486 48.9611 139.675 49.2351 139.804C49.5093 139.933 49.8051 140 50.1043 140C50.4033 140 50.6993 139.933 50.9733 139.804C51.2473 139.675 51.4935 139.486 51.6965 139.25C53.6683 136.946 99.9377 82.5506 99.9377 53.6667C99.9071 24.0409 77.6139 0.0329585 50.1043 0ZM50.1043 4.66667C75.2219 4.69642 95.5767 26.6169 95.6043 53.6667C95.6043 77.8705 58.3371 124.237 50.1043 134.181C41.8715 124.237 4.6041 77.8773 4.6041 53.6667C4.63172 26.6169 24.9865 4.69642 50.1043 4.66667Z" fill="#1A6FB0"/>
</g>
</g>
<path d="M79.1819 33.0617C77.8022 31.3889 75.8521 30.3711 73.6909 30.1959L71.9454 30.0543L71.804 28.3089C71.6287 26.1475 70.611 24.1975 68.938 22.818C67.265 21.4385 65.1575 20.8105 63.0018 21.0498C61.1035 21.2608 59.3436 22.1486 58.046 23.5501C56.7484 24.9516 55.9985 26.7748 55.9341 28.6835L55.7491 34.1733L34.1735 55.7491L28.6836 55.9343C26.7743 55.9988 24.952 56.7485 23.5501 58.0462C22.1486 59.3441 21.2611 61.1033 21.0499 63.002C20.8105 65.157 21.4383 67.2652 22.8179 68.9382C24.1976 70.611 26.1477 71.6288 28.3089 71.8041L30.0544 71.9457L30.1958 73.6912C30.3711 75.8525 31.389 77.8026 33.062 79.1821C34.5017 80.3694 36.2638 81 38.101 81C38.3983 81 38.6978 80.9834 38.9981 80.95C40.8963 80.7391 42.6564 79.8511 43.9539 78.4498C45.2515 77.0483 46.0016 75.2252 46.066 73.3164L46.251 67.8266L67.8266 46.2506L73.3165 46.0657C75.2258 46.0011 77.0479 45.2514 78.4499 43.9538C79.8516 42.6558 80.7391 40.8967 80.9502 38.998C81.1895 36.8428 80.5616 34.7347 79.1819 33.0617Z" fill="black"/>
</g>
<defs>
<clipPath id="clip0_181_58">
<rect width="130" height="140" fill="white"/>
</clipPath>
</defs>
</svg>
