<svg width="130" height="140" viewBox="0 0 130 140" fill="none" xmlns="http://www.w3.org/2000/svg">
<g clip-path="url(#clip0_316_20)">
<mask id="mask0_316_20" style="mask-type:luminance" maskUnits="userSpaceOnUse" x="0" y="0" width="130" height="140">
<path d="M130 0H0V140H130V0Z" fill="white"/>
</mask>
<g mask="url(#mask0_316_20)">
<mask id="mask1_316_20" style="mask-type:luminance" maskUnits="userSpaceOnUse" x="0" y="0" width="130" height="140">
<path d="M130 0H0V140H130V0Z" fill="white"/>
</mask>
<g mask="url(#mask1_316_20)">
<mask id="mask2_316_20" style="mask-type:luminance" maskUnits="userSpaceOnUse" x="0" y="0" width="130" height="140">
<path d="M130 0H0V140H130V0Z" fill="white"/>
</mask>
<g mask="url(#mask2_316_20)">
<path d="M98 50.4999C98 76.7331 76.7331 98 50.5 98C24.2669 98 3 76.7331 3 50.4999C3 24.2669 24.2669 3 50.5 3C76.7331 3 98 24.2669 98 50.4999Z" fill="#78B9EB"/>
<path d="M50.1043 0C22.5945 0.0329585 0.301358 24.0409 0.270752 53.6667C0.270752 82.5508 46.5401 136.946 48.5119 139.25C48.7149 139.486 48.9611 139.675 49.2351 139.804C49.5093 139.933 49.8051 140 50.1043 140C50.4033 140 50.6993 139.933 50.9733 139.804C51.2473 139.675 51.4935 139.486 51.6965 139.25C53.6683 136.946 99.9377 82.5506 99.9377 53.6667C99.9071 24.0409 77.6139 0.0329585 50.1043 0ZM50.1043 4.66667C75.2219 4.69642 95.5767 26.6169 95.6043 53.6667C95.6043 77.8705 58.3371 124.237 50.1043 134.181C41.8715 124.237 4.6041 77.8773 4.6041 53.6667C4.63172 26.6169 24.9865 4.69642 50.1043 4.66667Z" fill="#1A6FB0"/>
</g>
</g>
</g>
<path d="M32.118 20.0673C28.4729 20.2956 25.3092 23.6702 25.3164 27.3224C25.3177 31.1203 28.7736 34.5749 32.5715 34.5749C36.3693 34.5749 39.8252 31.1203 39.8266 27.3224C39.8343 23.3677 36.065 19.8201 32.118 20.0673ZM70.8119 34.5775C67.1668 34.8058 64.0031 38.1804 64.0102 41.8326C64.0116 45.6305 67.4675 49.0851 71.2653 49.0851C75.0632 49.0851 78.519 45.6305 78.5204 41.8326C78.5283 37.8779 74.7589 34.3303 70.8119 34.5775ZM30.1531 36.9959C23.0383 36.9959 21.1285 46.057 20.6308 50.9015L15.6429 49.0877V53.9245L44.5121 64.2025L39.8266 82.9449H59.1735L54.6391 67.8301L83.3572 78.1081V73.2714L78.8227 71.6088C79.6163 67.4427 82.148 51.5061 73.6837 51.5061C65.7589 51.5061 64.4203 62.3621 64.1614 66.4697L35.4433 56.1917C36.3684 50.7203 37.9596 36.9959 30.1531 36.9959Z" fill="black"/>
</g>
<defs>
<clipPath id="clip0_316_20">
<rect width="130" height="140" fill="white"/>
</clipPath>
</defs>
</svg>
