<svg width="130" height="140" viewBox="0 0 130 140" fill="none" xmlns="http://www.w3.org/2000/svg">
<g clip-path="url(#clip0_316_20)">
<mask id="mask0_316_20" style="mask-type:luminance" maskUnits="userSpaceOnUse" x="0" y="0" width="130" height="140">
<path d="M130 0H0V140H130V0Z" fill="white"/>
</mask>
<g mask="url(#mask0_316_20)">
<mask id="mask1_316_20" style="mask-type:luminance" maskUnits="userSpaceOnUse" x="0" y="0" width="130" height="140">
<path d="M130 0H0V140H130V0Z" fill="white"/>
</mask>
<g mask="url(#mask1_316_20)">
<mask id="mask2_316_20" style="mask-type:luminance" maskUnits="userSpaceOnUse" x="0" y="0" width="130" height="140">
<path d="M130 0H0V140H130V0Z" fill="white"/>
</mask>
<g mask="url(#mask2_316_20)">
<path d="M98 50.4999C98 76.7331 76.7331 98 50.5 98C24.2669 98 3 76.7331 3 50.4999C3 24.2669 24.2669 3 50.5 3C76.7331 3 98 24.2669 98 50.4999Z" fill="#78B9EB"/>
<path d="M50.1043 0C22.5945 0.0329585 0.301358 24.0409 0.270752 53.6667C0.270752 82.5508 46.5401 136.946 48.5119 139.25C48.7149 139.486 48.9611 139.675 49.2351 139.804C49.5093 139.933 49.8051 140 50.1043 140C50.4033 140 50.6993 139.933 50.9733 139.804C51.2473 139.675 51.4935 139.486 51.6965 139.25C53.6683 136.946 99.9377 82.5506 99.9377 53.6667C99.9071 24.0409 77.6139 0.0329585 50.1043 0ZM50.1043 4.66667C75.2219 4.69642 95.5767 26.6169 95.6043 53.6667C95.6043 77.8705 58.3371 124.237 50.1043 134.181C41.8715 124.237 4.6041 77.8773 4.6041 53.6667C4.63172 26.6169 24.9865 4.69642 50.1043 4.66667Z" fill="#1A6FB0"/>
</g>
</g>
</g>
<path d="M85.6972 66.1535C85.0731 65.5111 84.2212 65.1401 83.3258 65.1207C82.4303 65.1013 81.5631 65.435 80.9118 66.0497C80.1858 66.739 79.4193 67.3843 78.6163 67.9821C75.8502 69.9957 72.805 71.5947 69.5771 72.7286C61.8775 75.9138 47.9711 76.7801 48.2305 76.5674C39.7784 76.5429 31.5564 73.8114 24.77 68.7732C23.149 67.6009 21.6107 66.3183 20.1661 64.9344C19.5676 64.3415 18.7695 63.993 17.9277 63.9571C17.086 63.9211 16.2611 64.2002 15.6141 64.7399C15.2168 65.0289 14.8863 65.3999 14.6449 65.8278C14.4036 66.2557 14.257 66.7305 14.2152 67.22C14.1734 67.7095 14.2373 68.2023 14.4026 68.6649C14.5678 69.1276 14.8306 69.5493 15.1732 69.9015C23.9453 78.5904 35.7671 83.5053 48.1138 83.5965C48.3602 83.5965 73.338 83.0518 85.7621 71.1205C86.0964 70.797 86.361 70.4086 86.5398 69.9791C86.7185 69.5497 86.8076 69.0882 86.8015 68.623C86.7954 68.1579 86.6943 67.6989 86.5045 67.2742C86.3146 66.8495 86.0399 66.4681 85.6972 66.1535Z" fill="black"/>
<path d="M21.6705 45.7018C22.5747 46.0562 23.5642 46.132 24.5118 45.9194C25.4594 45.7067 26.3217 45.2154 26.9877 44.5087L30.8524 40.4235C31.8323 44.5927 31.8413 48.9313 30.879 53.1046C29.9166 57.2779 28.0085 61.1744 25.3018 64.4935C23.8337 65.7515 25.4535 65.8163 26.6376 66.9187C29.1923 68.7473 31.9625 70.2544 34.8857 71.4058C37.3242 68.2296 39.0773 64.582 40.0343 60.6937C43.995 62.1864 48.187 62.9722 52.4194 63.0151C55.5628 63.0421 58.6856 62.5062 61.6402 61.4329C64.2319 64.0481 65.9646 67.3914 66.6072 71.0168C67.4372 70.7574 68.2543 70.4721 69.0713 70.1608C71.8305 69.1499 74.4429 67.7761 76.8396 66.0757C71.5146 59.6069 72.9853 53.5699 73.0397 53.081C73.165 51.2833 72.9137 49.4793 72.3018 47.7844C71.6899 46.0894 70.731 44.5408 69.4863 43.2377C73.6039 40.2653 74.0915 47.4435 74.1291 51.1876C74.125 51.3602 74.1555 51.532 74.2188 51.6926C74.2822 51.8533 74.3772 51.9996 74.4981 52.123C74.619 52.2463 74.7634 52.3441 74.9228 52.4107C75.0822 52.4772 75.2533 52.5111 75.426 52.5104H79.9651C80.0377 52.5254 80.1114 52.5341 80.1855 52.5363C81.8663 52.1887 81.6484 51.7284 81.1063 47.4266C80.6433 43.8602 79.6668 38.3537 76.0083 36.4291C70.9907 33.1117 65.8369 38.163 64.077 41.2146C64.0199 41.2153 63.9631 41.224 63.9084 41.2405L59.9011 42.1483C63.2626 50.6299 58.1127 55.9899 51.3028 55.8693C47.1723 55.8628 44.1155 54.5335 42.7823 52.0046C40.671 47.9441 42.8952 42.5374 44.7666 39.0099C40.2042 28.2069 33.6653 24.5679 28.2314 24.2904C26.4767 22.3217 22.4279 20.1858 20.93 22.2413C20.6937 22.5644 20.5537 22.9478 20.5262 23.3471C20.4986 23.7464 20.5847 24.1454 20.7744 24.4979C21.5861 26.1391 22.0915 27.9146 22.2658 29.7372C21.3916 32.9773 20.2731 36.1464 18.9198 39.2174C18.665 39.8226 18.5342 40.4728 18.535 41.1294C18.5358 41.7861 18.6683 42.4359 18.9246 43.0404C19.181 43.645 19.5559 44.192 20.0273 44.6491C20.4988 45.1062 21.0571 45.4642 21.6692 45.7018H21.6705Z" fill="black"/>
<path d="M45.0661 50.7596C46.1918 53.4377 54.2052 54.8084 57.4254 50.7077C58.8558 48.8675 58.3423 45.2609 57.3605 42.719L54.7149 43.3155C53.2919 43.7657 51.7717 43.8113 50.3243 43.4472C48.8768 43.083 47.5592 42.3235 46.5186 41.2535C45.214 43.9458 43.6837 48.2203 45.0661 50.7596Z" fill="black"/>
</g>
<defs>
<clipPath id="clip0_316_20">
<rect width="130" height="140" fill="white"/>
</clipPath>
</defs>
</svg>
