<svg width="130" height="140" viewBox="0 0 130 140" fill="none" xmlns="http://www.w3.org/2000/svg">
<g clip-path="url(#clip0_316_20)">
<mask id="mask0_316_20" style="mask-type:luminance" maskUnits="userSpaceOnUse" x="0" y="0" width="130" height="140">
<path d="M130 0H0V140H130V0Z" fill="white"/>
</mask>
<g mask="url(#mask0_316_20)">
<mask id="mask1_316_20" style="mask-type:luminance" maskUnits="userSpaceOnUse" x="0" y="0" width="130" height="140">
<path d="M130 0H0V140H130V0Z" fill="white"/>
</mask>
<g mask="url(#mask1_316_20)">
<mask id="mask2_316_20" style="mask-type:luminance" maskUnits="userSpaceOnUse" x="0" y="0" width="130" height="140">
<path d="M130 0H0V140H130V0Z" fill="white"/>
</mask>
<g mask="url(#mask2_316_20)">
<path d="M98 50.4999C98 76.7331 76.7331 98 50.5 98C24.2669 98 3 76.7331 3 50.4999C3 24.2669 24.2669 3 50.5 3C76.7331 3 98 24.2669 98 50.4999Z" fill="#78B9EB"/>
<path d="M50.1043 0C22.5945 0.0329585 0.301358 24.0409 0.270752 53.6667C0.270752 82.5508 46.5401 136.946 48.5119 139.25C48.7149 139.486 48.9611 139.675 49.2351 139.804C49.5093 139.933 49.8051 140 50.1043 140C50.4033 140 50.6993 139.933 50.9733 139.804C51.2473 139.675 51.4935 139.486 51.6965 139.25C53.6683 136.946 99.9377 82.5506 99.9377 53.6667C99.9071 24.0409 77.6139 0.0329585 50.1043 0ZM50.1043 4.66667C75.2219 4.69642 95.5767 26.6169 95.6043 53.6667C95.6043 77.8705 58.3371 124.237 50.1043 134.181C41.8715 124.237 4.6041 77.8773 4.6041 53.6667C4.63172 26.6169 24.9865 4.69642 50.1043 4.66667Z" fill="#1A6FB0"/>
</g>
</g>
</g>
<path d="M32.4089 29.3019L26.1948 23.0877C25.3365 22.2294 23.9459 22.2294 23.0877 23.0877C22.2294 23.9459 22.2294 25.3365 23.0877 26.1948L29.3019 32.4089C30.1601 33.2672 31.5507 33.2672 32.4089 32.4089C33.2672 31.5507 33.2672 30.1601 32.4089 29.3019ZM23.1328 47.3027H14.1973C12.9828 47.3027 12 48.2855 12 49.5C12 50.7145 12.9828 51.6973 14.1973 51.6973H23.1328C24.3473 51.6973 25.3301 50.7145 25.3301 49.5C25.3301 48.2855 24.3473 47.3027 23.1328 47.3027ZM84.8027 47.3027H75.8672C74.6527 47.3027 73.6699 48.2855 73.6699 49.5C73.6699 50.7145 74.6527 51.6973 75.8672 51.6973H84.8027C86.0172 51.6973 87 50.7145 87 49.5C87 48.2855 86.0172 47.3027 84.8027 47.3027ZM75.9123 23.0877C75.0541 22.2294 73.6635 22.2294 72.8052 23.0877L66.5911 29.3019C65.7328 30.1601 65.7328 31.5507 66.5911 32.4089C67.4493 33.2672 68.8399 33.2672 69.6981 32.4089L75.9123 26.1948C76.7706 25.3365 76.7706 23.9461 75.9123 23.0877ZM49.5 12C48.2855 12 47.3027 12.9828 47.3027 14.1973V23.1328C47.3027 24.3473 48.2855 25.3301 49.5 25.3301C50.7145 25.3301 51.6973 24.3473 51.6973 23.1328V14.1973C51.6973 12.9828 50.7145 12 49.5 12ZM61.8047 33.9872C57.0148 30.2079 50.8184 28.8457 44.7539 30.2959C37.7227 31.9219 32.0539 37.5028 30.3398 44.4902C28.626 51.5213 30.6035 58.6405 35.6571 63.6063C37.459 65.4082 38.5137 68.2352 38.5137 71.1357V71.6191C38.5137 72.8495 39.4803 73.8164 40.7109 73.8164H58.2891C59.5197 73.8164 60.4863 72.8495 60.4863 71.6191V71.1357C60.4863 68.2792 61.585 65.3641 63.5186 63.4745C67.2101 59.7391 69.2754 54.7734 69.2754 49.5C69.2754 43.4355 66.5508 37.7665 61.8047 33.9872ZM49.5 42.9082C46.1851 42.9082 43.7719 45.1071 43.1399 47.6525C42.8524 48.8102 41.6875 49.5491 40.477 49.2576C39.3012 48.9658 38.5822 47.7727 38.8742 46.5968C39.9628 42.2023 44.0905 38.5137 49.5 38.5137C50.7145 38.5137 51.6973 39.4964 51.6973 40.7109C51.6973 41.9254 50.7145 42.9082 49.5 42.9082ZM40.7109 78.2109V80.4082C40.7109 84.0431 43.6679 87 47.3027 87H51.6973C55.3321 87 58.2891 84.0431 58.2891 80.4082V78.2109H40.7109Z" fill="black"/>
</g>
<defs>
<clipPath id="clip0_316_20">
<rect width="130" height="140" fill="white"/>
</clipPath>
</defs>
</svg>
