<svg width="130" height="140" viewBox="0 0 130 140" fill="none" xmlns="http://www.w3.org/2000/svg">
<g clip-path="url(#clip0_181_58)">
<mask id="mask0_181_58" style="mask-type:luminance" maskUnits="userSpaceOnUse" x="0" y="0" width="130" height="140">
<path d="M130 0H0V140H130V0Z" fill="white"/>
</mask>
<g mask="url(#mask0_181_58)">
<mask id="mask1_181_58" style="mask-type:luminance" maskUnits="userSpaceOnUse" x="0" y="0" width="130" height="140">
<path d="M130 0H0V140H130V0Z" fill="white"/>
</mask>
<g mask="url(#mask1_181_58)">
<path d="M98 50.4999C98 76.7331 76.7331 98 50.5 98C24.2669 98 3 76.7331 3 50.4999C3 24.2669 24.2669 3 50.5 3C76.7331 3 98 24.2669 98 50.4999Z" fill="#78B9EB"/>
<path d="M50.1043 0C22.5945 0.0329585 0.301358 24.0409 0.270752 53.6667C0.270752 82.5508 46.5401 136.946 48.5119 139.25C48.7149 139.486 48.9611 139.675 49.2351 139.804C49.5093 139.933 49.8051 140 50.1043 140C50.4033 140 50.6993 139.933 50.9733 139.804C51.2473 139.675 51.4935 139.486 51.6965 139.25C53.6683 136.946 99.9377 82.5506 99.9377 53.6667C99.9071 24.0409 77.6139 0.0329585 50.1043 0ZM50.1043 4.66667C75.2219 4.69642 95.5767 26.6169 95.6043 53.6667C95.6043 77.8705 58.3371 124.237 50.1043 134.181C41.8715 124.237 4.6041 77.8773 4.6041 53.6667C4.63172 26.6169 24.9865 4.69642 50.1043 4.66667Z" fill="#1A6FB0"/>
</g>
</g>
<path d="M51.0002 67.3556C50.2445 67.8538 49.4543 68.3078 48.6345 68.7149V89H53.3659V68.7149C52.5461 68.3078 51.756 67.8538 51.0002 67.3556Z" fill="black"/>
<path d="M72.7898 33.0332C72.0745 28.5606 69.6981 24.4476 66.0023 21.3358C61.9155 17.895 56.5877 16 51.0002 16C45.4126 16 40.0848 17.895 35.9978 21.3358C32.302 24.4476 29.9258 28.5606 29.2104 33.0332C21.2499 36.1757 16 43.3443 16 51.28C16 62.2555 25.877 71.1846 38.0173 71.1846C41.7594 71.1846 45.4053 70.323 48.6342 68.7151V60.0095L38.0235 54.9658L40.2255 51.1799L48.6345 55.1769V37.2768H53.3658V45.6963L61.7745 41.6993L63.9765 45.4852L53.3658 50.529V68.7151C56.6175 70.3351 60.2699 71.1846 63.9827 71.1846C76.1231 71.1846 86 62.2553 86 51.28C86.0002 43.3443 80.7502 36.1755 72.7898 33.0332Z" fill="black"/>
</g>
<defs>
<clipPath id="clip0_181_58">
<rect width="130" height="140" fill="white"/>
</clipPath>
</defs>
</svg>
