<svg width="130" height="140" viewBox="0 0 130 140" fill="none" xmlns="http://www.w3.org/2000/svg">
<g clip-path="url(#clip0_181_58)">
<mask id="mask0_181_58" style="mask-type:luminance" maskUnits="userSpaceOnUse" x="0" y="0" width="130" height="140">
<path d="M130 0H0V140H130V0Z" fill="white"/>
</mask>
<g mask="url(#mask0_181_58)">
<mask id="mask1_181_58" style="mask-type:luminance" maskUnits="userSpaceOnUse" x="0" y="0" width="130" height="140">
<path d="M130 0H0V140H130V0Z" fill="white"/>
</mask>
<g mask="url(#mask1_181_58)">
<path d="M98 50.4999C98 76.7331 76.7331 98 50.5 98C24.2669 98 3 76.7331 3 50.4999C3 24.2669 24.2669 3 50.5 3C76.7331 3 98 24.2669 98 50.4999Z" fill="#78B9EB"/>
<path d="M50.1043 0C22.5945 0.0329585 0.301358 24.0409 0.270752 53.6667C0.270752 82.5508 46.5401 136.946 48.5119 139.25C48.7149 139.486 48.9611 139.675 49.2351 139.804C49.5093 139.933 49.8051 140 50.1043 140C50.4033 140 50.6993 139.933 50.9733 139.804C51.2473 139.675 51.4935 139.486 51.6965 139.25C53.6683 136.946 99.9377 82.5506 99.9377 53.6667C99.9071 24.0409 77.6139 0.0329585 50.1043 0ZM50.1043 4.66667C75.2219 4.69642 95.5767 26.6169 95.6043 53.6667C95.6043 77.8705 58.3371 124.237 50.1043 134.181C41.8715 124.237 4.6041 77.8773 4.6041 53.6667C4.63172 26.6169 24.9865 4.69642 50.1043 4.66667Z" fill="#1A6FB0"/>
</g>
</g>
<path d="M62.1229 54.0933C59.4229 49.274 54.8248 46.3964 49.8224 46.3964C44.82 46.3964 40.2217 49.274 37.5223 54.0933L31.0166 65.7056C29.9373 67.632 29.4392 69.858 29.576 72.1411C29.7129 74.4247 30.4723 76.5511 31.772 78.2922C33.0724 80.0317 34.7908 81.2206 36.7414 81.7308C38.6919 82.2408 40.6914 82.0231 42.5234 81.1016L42.6461 81.0393C47.2558 78.7672 52.5232 78.7882 57.121 81.1016C58.307 81.6983 59.5636 82 60.8315 82C61.521 82 62.2145 81.9104 62.9015 81.7313C64.8521 81.2216 66.5705 80.0327 67.8714 78.2927C69.1715 76.5532 69.9315 74.4263 70.0687 72.1422C70.206 69.858 69.708 67.6325 68.6286 65.7051L62.1229 54.0933ZM32.769 54.078C34.7043 53.2275 36.1747 51.4429 36.909 49.053C37.608 46.7788 37.5507 44.2113 36.7472 41.823C35.9435 39.4363 34.4814 37.4878 32.6302 36.336C30.6856 35.1265 28.5493 34.9297 26.617 35.7818C22.7298 37.4919 20.9459 42.9883 22.6409 48.037C23.9949 52.0552 27.1531 54.5918 30.3459 54.5918C31.1744 54.593 31.9959 54.4188 32.769 54.078ZM45.3921 44.9802C50.2518 44.9802 54.2054 39.8263 54.2054 33.4914C54.2054 27.1549 50.2518 22 45.3921 22C40.533 22 36.5798 27.1549 36.5798 33.4914C36.5798 39.8263 40.5329 44.9802 45.3921 44.9802ZM60.6128 47.8028H60.6132C61.3452 48.0811 62.1115 48.2228 62.8828 48.2223C66.4268 48.2223 69.8806 45.2709 71.1985 40.735C71.9575 38.1241 71.9075 35.3633 71.0579 32.9619C70.169 30.4478 68.5215 28.6229 66.4185 27.8233C64.315 27.0235 62.0404 27.3571 60.0131 28.7619C58.0764 30.1036 56.5922 32.281 55.8342 34.8919C54.2343 40.3999 56.378 46.1917 60.6128 47.8028ZM79.1727 46.462L79.1713 46.4604C75.8201 43.6279 70.808 44.8555 67.9979 49.1987C65.1904 53.5438 65.6294 59.3853 68.9756 62.2199C70.196 63.2544 71.6381 63.7488 73.1138 63.7488C75.6861 63.7488 78.362 62.2466 80.1509 59.4844C82.958 55.1391 82.5195 49.2976 79.1727 46.4619V46.462Z" fill="black"/>
</g>
<defs>
<clipPath id="clip0_181_58">
<rect width="130" height="140" fill="white"/>
</clipPath>
</defs>
</svg>
