<svg width="130" height="140" viewBox="0 0 130 140" fill="none" xmlns="http://www.w3.org/2000/svg">
<g clip-path="url(#clip0_316_20)">
<mask id="mask0_316_20" style="mask-type:luminance" maskUnits="userSpaceOnUse" x="0" y="0" width="130" height="140">
<path d="M130 0H0V140H130V0Z" fill="white"/>
</mask>
<g mask="url(#mask0_316_20)">
<mask id="mask1_316_20" style="mask-type:luminance" maskUnits="userSpaceOnUse" x="0" y="0" width="130" height="140">
<path d="M130 0H0V140H130V0Z" fill="white"/>
</mask>
<g mask="url(#mask1_316_20)">
<mask id="mask2_316_20" style="mask-type:luminance" maskUnits="userSpaceOnUse" x="0" y="0" width="130" height="140">
<path d="M130 0H0V140H130V0Z" fill="white"/>
</mask>
<g mask="url(#mask2_316_20)">
<path d="M98 50.4999C98 76.7331 76.7331 98 50.5 98C24.2669 98 3 76.7331 3 50.4999C3 24.2669 24.2669 3 50.5 3C76.7331 3 98 24.2669 98 50.4999Z" fill="#78B9EB"/>
<path d="M50.1043 0C22.5945 0.0329585 0.301358 24.0409 0.270752 53.6667C0.270752 82.5508 46.5401 136.946 48.5119 139.25C48.7149 139.486 48.9611 139.675 49.2351 139.804C49.5093 139.933 49.8051 140 50.1043 140C50.4033 140 50.6993 139.933 50.9733 139.804C51.2473 139.675 51.4935 139.486 51.6965 139.25C53.6683 136.946 99.9377 82.5506 99.9377 53.6667C99.9071 24.0409 77.6139 0.0329585 50.1043 0ZM50.1043 4.66667C75.2219 4.69642 95.5767 26.6169 95.6043 53.6667C95.6043 77.8705 58.3371 124.237 50.1043 134.181C41.8715 124.237 4.6041 77.8773 4.6041 53.6667C4.63172 26.6169 24.9865 4.69642 50.1043 4.66667Z" fill="#1A6FB0"/>
</g>
</g>
</g>
<path d="M34.205 43.8175L21.8306 51.9174H19.0846C14.8301 51.9174 11.2128 48.8078 10.5741 44.6003L17.0685 41.0116C17.0685 39.4475 17.6046 37.9832 18.52 36.8198C19.4594 35.6239 20.7744 34.7796 22.2527 34.423L22.9784 34.2477L28.3964 29.6895L34.205 43.8175ZM75.162 75.1819V90H66.2708V82.2951L66.181 82.2409C64.0854 80.9925 62.35 79.2212 61.1448 77.1005C59.9396 74.9798 59.306 72.5824 59.3059 70.1431H36.7828V90H27.8916V73.4609C24.9211 68.1352 23.3535 62.1417 23.3363 56.0436L37.0181 47.0883L43.8946 51.8518H60.6347C63.2824 51.8518 65.8103 52.9596 67.6068 54.9058C68.4087 55.7742 69.0412 56.7849 69.4717 57.8857C69.9019 58.9872 70.1229 60.1593 70.1233 61.3418V71.0328L75.162 75.1819ZM73.6323 17C71.307 21.2994 68.1148 25.2865 64.1156 28.8756C60.3729 32.2346 55.9204 35.2567 50.8818 37.858C46.027 40.3644 41.5469 41.9961 38.5357 42.9486L42.9195 45.9854C45.7165 44.9748 49.112 43.5784 52.7386 41.7131C58.1202 38.9449 62.8916 35.7125 66.9205 32.1056C71.9322 27.6189 75.8003 22.5372 78.4259 17L73.6323 17Z" fill="black"/>
</g>
<defs>
<clipPath id="clip0_316_20">
<rect width="130" height="140" fill="white"/>
</clipPath>
</defs>
</svg>
