<svg width="130" height="140" viewBox="0 0 130 140" fill="none" xmlns="http://www.w3.org/2000/svg">
<g clip-path="url(#clip0_181_58)">
<mask id="mask0_181_58" style="mask-type:luminance" maskUnits="userSpaceOnUse" x="0" y="0" width="130" height="140">
<path d="M130 0H0V140H130V0Z" fill="white"/>
</mask>
<g mask="url(#mask0_181_58)">
<mask id="mask1_181_58" style="mask-type:luminance" maskUnits="userSpaceOnUse" x="0" y="0" width="130" height="140">
<path d="M130 0H0V140H130V0Z" fill="white"/>
</mask>
<g mask="url(#mask1_181_58)">
<path d="M98 50.4999C98 76.7331 76.7331 98 50.5 98C24.2669 98 3 76.7331 3 50.4999C3 24.2669 24.2669 3 50.5 3C76.7331 3 98 24.2669 98 50.4999Z" fill="#78B9EB"/>
<path d="M50.1043 0C22.5945 0.0329585 0.301358 24.0409 0.270752 53.6667C0.270752 82.5508 46.5401 136.946 48.5119 139.25C48.7149 139.486 48.9611 139.675 49.2351 139.804C49.5093 139.933 49.8051 140 50.1043 140C50.4033 140 50.6993 139.933 50.9733 139.804C51.2473 139.675 51.4935 139.486 51.6965 139.25C53.6683 136.946 99.9377 82.5506 99.9377 53.6667C99.9071 24.0409 77.6139 0.0329585 50.1043 0ZM50.1043 4.66667C75.2219 4.69642 95.5767 26.6169 95.6043 53.6667C95.6043 77.8705 58.3371 124.237 50.1043 134.181C41.8715 124.237 4.6041 77.8773 4.6041 53.6667C4.63172 26.6169 24.9865 4.69642 50.1043 4.66667Z" fill="#1A6FB0"/>
</g>
</g>
<path d="M71.1034 31.4138L67.5862 45.4828L53.5172 41.9655L58.3476 39.0697L50.4807 25.751L41.7931 43.1379L31.2414 38.4483L44.1379 15H55.8621L66.5076 34.169L71.1034 31.4138ZM44.1379 67.7586V79.4828H21.8621L16 67.7586L25.5552 49.7152L20.6897 46.6552L35.931 44.3103L39.4483 58.4614L34.8876 55.589L28.2517 67.7586H44.1379ZM84 67.7586L78.1379 79.4828H58.2069V83L47.6552 73.6207L58.2069 64.2414V67.7586H72.2759L64.069 51.3448L74.6207 46.6552L84 67.7586Z" fill="black"/>
</g>
<defs>
<clipPath id="clip0_181_58">
<rect width="130" height="140" fill="white"/>
</clipPath>
</defs>
</svg>
