<svg width="130" height="140" viewBox="0 0 130 140" fill="none" xmlns="http://www.w3.org/2000/svg">
<g clip-path="url(#clip0_181_58)">
<mask id="mask0_181_58" style="mask-type:luminance" maskUnits="userSpaceOnUse" x="0" y="0" width="130" height="140">
<path d="M130 0H0V140H130V0Z" fill="white"/>
</mask>
<g mask="url(#mask0_181_58)">
<mask id="mask1_181_58" style="mask-type:luminance" maskUnits="userSpaceOnUse" x="0" y="0" width="130" height="140">
<path d="M130 0H0V140H130V0Z" fill="white"/>
</mask>
<g mask="url(#mask1_181_58)">
<path d="M98 50.4999C98 76.7331 76.7331 98 50.5 98C24.2669 98 3 76.7331 3 50.4999C3 24.2669 24.2669 3 50.5 3C76.7331 3 98 24.2669 98 50.4999Z" fill="#78B9EB"/>
<path d="M50.1043 0C22.5945 0.0329585 0.301358 24.0409 0.270752 53.6667C0.270752 82.5508 46.5401 136.946 48.5119 139.25C48.7149 139.486 48.9611 139.675 49.2351 139.804C49.5093 139.933 49.8051 140 50.1043 140C50.4033 140 50.6993 139.933 50.9733 139.804C51.2473 139.675 51.4935 139.486 51.6965 139.25C53.6683 136.946 99.9377 82.5506 99.9377 53.6667C99.9071 24.0409 77.6139 0.0329585 50.1043 0ZM50.1043 4.66667C75.2219 4.69642 95.5767 26.6169 95.6043 53.6667C95.6043 77.8705 58.3371 124.237 50.1043 134.181C41.8715 124.237 4.6041 77.8773 4.6041 53.6667C4.63172 26.6169 24.9865 4.69642 50.1043 4.66667Z" fill="#1A6FB0"/>
</g>
</g>
<path d="M78.9698 37.4312L74.0053 32.4697L77.7372 28.7413C77.9007 28.5782 78.0304 28.3846 78.1189 28.1713C78.2073 27.9581 78.2529 27.7296 78.2529 27.4987C78.2529 27.2679 78.2074 27.0392 78.1189 26.826C78.0305 26.6128 77.9008 26.4191 77.7374 26.256L72.7407 21.2623C72.0811 20.6032 70.9131 20.6032 70.2536 21.2623L66.523 24.9921L61.5578 20.0297C60.184 18.6568 57.9567 18.6568 56.583 20.0297C55.209 21.4026 55.209 23.6284 56.583 25.0014L73.9948 42.403C75.3687 43.7758 77.5961 43.7758 78.9698 42.403C80.3434 41.0301 80.3434 38.8041 78.9698 37.4312ZM43.417 72.9984L26.0052 55.5969C24.6313 54.224 22.4041 54.224 21.0302 55.5969C19.6566 56.97 19.6566 59.1959 21.0302 60.5688L25.9955 65.5311L22.2708 69.252C21.9409 69.5817 21.7554 70.0279 21.7554 70.4948C21.7554 70.9617 21.9409 71.408 22.2708 71.7376L27.2675 76.7296C27.6109 77.073 28.061 77.2447 28.511 77.2447C28.961 77.2447 29.4111 77.073 29.7545 76.7297L33.4777 73.0087L38.4422 77.9703C39.816 79.3432 42.0433 79.3432 43.417 77.9703C44.791 76.5972 44.791 74.3712 43.417 72.9984ZM51.608 39.9171L40.9297 50.6252L48.392 58.083L59.0703 47.3747L51.608 39.9171ZM73.9949 47.3748L51.608 25.0014C50.2342 23.6286 48.0068 23.6286 46.6332 25.0014C45.2592 26.3746 45.2592 28.6003 46.6332 29.9733L69.0201 52.3467C70.3938 53.7196 72.6211 53.7196 73.9949 52.3467C75.3688 50.9739 75.3688 48.7479 73.9949 47.3748ZM53.3669 68.0266L30.9799 45.6532C29.6062 44.2803 27.3788 44.2803 26.0052 45.6532C24.6313 47.0262 24.6313 49.2522 26.0052 50.6251L48.3921 72.9984C49.7659 74.3712 51.9931 74.3712 53.3669 72.9984C54.7409 71.6256 54.7409 69.3996 53.3669 68.0266Z" fill="black"/>
</g>
<defs>
<clipPath id="clip0_181_58">
<rect width="130" height="140" fill="white"/>
</clipPath>
</defs>
</svg>
