<svg width="130" height="140" viewBox="0 0 130 140" fill="none" xmlns="http://www.w3.org/2000/svg">
<g clip-path="url(#clip0_181_58)">
<mask id="mask0_181_58" style="mask-type:luminance" maskUnits="userSpaceOnUse" x="0" y="0" width="130" height="140">
<path d="M130 0H0V140H130V0Z" fill="white"/>
</mask>
<g mask="url(#mask0_181_58)">
<mask id="mask1_181_58" style="mask-type:luminance" maskUnits="userSpaceOnUse" x="0" y="0" width="130" height="140">
<path d="M130 0H0V140H130V0Z" fill="white"/>
</mask>
<g mask="url(#mask1_181_58)">
<path d="M98 50.4999C98 76.7331 76.7331 98 50.5 98C24.2669 98 3 76.7331 3 50.4999C3 24.2669 24.2669 3 50.5 3C76.7331 3 98 24.2669 98 50.4999Z" fill="#78B9EB"/>
<path d="M50.1043 0C22.5945 0.0329585 0.301358 24.0409 0.270752 53.6667C0.270752 82.5508 46.5401 136.946 48.5119 139.25C48.7149 139.486 48.9611 139.675 49.2351 139.804C49.5093 139.933 49.8051 140 50.1043 140C50.4033 140 50.6993 139.933 50.9733 139.804C51.2473 139.675 51.4935 139.486 51.6965 139.25C53.6683 136.946 99.9377 82.5506 99.9377 53.6667C99.9071 24.0409 77.6139 0.0329585 50.1043 0ZM50.1043 4.66667C75.2219 4.69642 95.5767 26.6169 95.6043 53.6667C95.6043 77.8705 58.3371 124.237 50.1043 134.181C41.8715 124.237 4.6041 77.8773 4.6041 53.6667C4.63172 26.6169 24.9865 4.69642 50.1043 4.66667Z" fill="#1A6FB0"/>
</g>
</g>
<path d="M63.4708 67.7503C59.631 67.7503 56.465 70.4594 56.465 73.8751C56.465 77.232 59.5637 80 63.4708 80C67.3105 80 70.4767 77.291 70.4767 73.8751C70.4093 70.5183 67.3105 67.7503 63.4708 67.7503ZM75.7985 38.5395C75.6637 38.5395 75.4617 38.4805 75.2595 38.4805H32.8201L32.1465 34.5348C31.7423 31.9435 29.1825 30 26.151 30H20.6946C19.2125 30 18 31.0601 18 32.3557C18 33.6514 19.2125 34.7114 20.6946 34.7114H26.151C26.4879 34.7114 26.7574 34.947 26.8247 35.2415L31.0013 60.0943C31.5402 63.2155 34.6389 65.5713 38.2766 65.5713H66.3001C69.8031 65.5713 72.8344 63.3922 73.5754 60.3887L77.9541 41.2485C78.2236 40.0118 77.2805 38.775 75.7985 38.5395ZM46.2929 73.5806C46.1582 70.3416 43.0594 67.7503 39.3544 67.7503C35.4473 67.927 32.4833 70.7538 32.618 74.1107C32.7528 77.3498 35.7841 79.9411 39.4891 79.9411H39.6239C43.4637 79.7645 46.495 76.9376 46.2929 73.5806Z" fill="black"/>
</g>
<defs>
<clipPath id="clip0_181_58">
<rect width="130" height="140" fill="white"/>
</clipPath>
</defs>
</svg>
