<svg width="130" height="140" viewBox="0 0 130 140" fill="none" xmlns="http://www.w3.org/2000/svg">
<g clip-path="url(#clip0_181_58)">
<mask id="mask0_181_58" style="mask-type:luminance" maskUnits="userSpaceOnUse" x="0" y="0" width="130" height="140">
<path d="M130 0H0V140H130V0Z" fill="white"/>
</mask>
<g mask="url(#mask0_181_58)">
<mask id="mask1_181_58" style="mask-type:luminance" maskUnits="userSpaceOnUse" x="0" y="0" width="130" height="140">
<path d="M130 0H0V140H130V0Z" fill="white"/>
</mask>
<g mask="url(#mask1_181_58)">
<path d="M98 50.4999C98 76.7331 76.7331 98 50.5 98C24.2669 98 3 76.7331 3 50.4999C3 24.2669 24.2669 3 50.5 3C76.7331 3 98 24.2669 98 50.4999Z" fill="#78B9EB"/>
<path d="M50.1043 0C22.5945 0.0329585 0.301358 24.0409 0.270752 53.6667C0.270752 82.5508 46.5401 136.946 48.5119 139.25C48.7149 139.486 48.9611 139.675 49.2351 139.804C49.5093 139.933 49.8051 140 50.1043 140C50.4033 140 50.6993 139.933 50.9733 139.804C51.2473 139.675 51.4935 139.486 51.6965 139.25C53.6683 136.946 99.9377 82.5506 99.9377 53.6667C99.9071 24.0409 77.6139 0.0329585 50.1043 0ZM50.1043 4.66667C75.2219 4.69642 95.5767 26.6169 95.6043 53.6667C95.6043 77.8705 58.3371 124.237 50.1043 134.181C41.8715 124.237 4.6041 77.8773 4.6041 53.6667C4.63172 26.6169 24.9865 4.69642 50.1043 4.66667Z" fill="#1A6FB0"/>
</g>
</g>
<g clip-path="url(#clip1_181_58)">
<path d="M47.8208 32.2656H51.1792L49.5 28.9073L47.8208 32.2656Z" fill="black"/>
<path d="M64.7344 15H34.2656V45.5957H64.7344V15ZM55.4137 40.7347L53.0835 36.0742H45.9165L43.5863 40.7347L40.1794 39.031L49.5 20.3894L58.8206 39.0307L55.4137 40.7347ZM47.5957 49.4043H17V80H47.5957V49.4043ZM38.0742 68.4473C38.0742 71.5974 35.5113 74.1602 32.3613 74.1602H26.6484V55.1172H32.3613C35.5114 55.1172 38.0742 57.6801 38.0742 60.8301C38.0742 62.2984 37.5019 63.6256 36.5885 64.6387C37.5019 65.6518 38.0742 66.9789 38.0742 68.4473Z" fill="black"/>
<path d="M32.3613 58.9258H30.457V62.7344H32.3613C33.4121 62.7344 34.2656 61.8809 34.2656 60.8301C34.2656 59.7793 33.4121 58.9258 32.3613 58.9258ZM32.3613 66.543H30.457V70.3516H32.3613C33.4121 70.3516 34.2656 69.4981 34.2656 68.4473C34.2656 67.3965 33.4121 66.543 32.3613 66.543ZM51.4043 80H82V49.4043H51.4043V80ZM60.9258 60.8301C60.9258 57.68 63.4887 55.1172 66.6387 55.1172C69.7886 55.1172 72.3516 57.6801 72.3516 60.8301V62.7344H68.543V60.8301C68.543 59.7793 67.6895 58.9258 66.6387 58.9258C65.5879 58.9258 64.7344 59.7793 64.7344 60.8301V68.4473C64.7344 69.4981 65.5879 70.3516 66.6387 70.3516C67.6895 70.3516 68.543 69.4981 68.543 68.4473V66.543H72.3516V68.4473C72.3516 71.5974 69.7886 74.1602 66.6387 74.1602C63.4887 74.1602 60.9258 71.5972 60.9258 68.4473V60.8301Z" fill="black"/>
</g>
</g>
<defs>
<clipPath id="clip0_181_58">
<rect width="130" height="140" fill="white"/>
</clipPath>
<clipPath id="clip1_181_58">
<rect width="65" height="65" fill="white" transform="translate(17 15)"/>
</clipPath>
</defs>
</svg>
