<svg width="130" height="140" viewBox="0 0 130 140" fill="none" xmlns="http://www.w3.org/2000/svg">
<g clip-path="url(#clip0_181_58)">
<mask id="mask0_181_58" style="mask-type:luminance" maskUnits="userSpaceOnUse" x="0" y="0" width="130" height="140">
<path d="M130 0H0V140H130V0Z" fill="white"/>
</mask>
<g mask="url(#mask0_181_58)">
<mask id="mask1_181_58" style="mask-type:luminance" maskUnits="userSpaceOnUse" x="0" y="0" width="130" height="140">
<path d="M130 0H0V140H130V0Z" fill="white"/>
</mask>
<g mask="url(#mask1_181_58)">
<path d="M98 50.4999C98 76.7331 76.7331 98 50.5 98C24.2669 98 3 76.7331 3 50.4999C3 24.2669 24.2669 3 50.5 3C76.7331 3 98 24.2669 98 50.4999Z" fill="#78B9EB"/>
<path d="M50.1043 0C22.5945 0.0329585 0.301358 24.0409 0.270752 53.6667C0.270752 82.5508 46.5401 136.946 48.5119 139.25C48.7149 139.486 48.9611 139.675 49.2351 139.804C49.5093 139.933 49.8051 140 50.1043 140C50.4033 140 50.6993 139.933 50.9733 139.804C51.2473 139.675 51.4935 139.486 51.6965 139.25C53.6683 136.946 99.9377 82.5506 99.9377 53.6667C99.9071 24.0409 77.6139 0.0329585 50.1043 0ZM50.1043 4.66667C75.2219 4.69642 95.5767 26.6169 95.6043 53.6667C95.6043 77.8705 58.3371 124.237 50.1043 134.181C41.8715 124.237 4.6041 77.8773 4.6041 53.6667C4.63172 26.6169 24.9865 4.69642 50.1043 4.66667Z" fill="#1A6FB0"/>
</g>
</g>
<mask id="mask2_181_58" style="mask-type:luminance" maskUnits="userSpaceOnUse" x="19" y="19" width="65" height="65">
<path d="M19 19H84V84H19V19Z" fill="white"/>
</mask>
<g mask="url(#mask2_181_58)">
<path d="M74.1706 44.0628L77.9211 46.69L74.1706 51.1695V44.0628ZM74.1706 55.3293C74.5981 55.6308 76.3779 56.318 77.4788 54.8966L83.3952 47.8303C83.6885 47.4799 83.8969 47.0612 83.9686 46.6098C84.1209 45.6514 83.708 44.7254 82.9493 44.194L73.3496 37.4853C72.7262 37.0496 71.984 36.8159 71.2234 36.816H65.2786L57.4397 31.2723L54.6702 21.6027C54.2955 20.2942 52.9312 19.5374 51.6223 19.9119C50.3138 20.2867 49.5568 21.6513 49.9316 22.9598L52.9397 33.4626C53.0941 34.0019 53.4279 34.4724 53.8859 34.7963L61.1333 39.9218L61.1162 55.9251L54.7067 64.9918C54.2778 65.5986 54.093 66.3445 54.189 67.0813L55.9525 80.6083C56.1638 82.2299 57.6493 83.3694 59.2673 83.1587C60.8871 82.9476 62.0289 81.4634 61.8178 79.8437L60.2037 67.4627L66.9142 57.9703H68.2159L67.9046 68.2901C67.8887 68.8183 68.0147 69.3412 68.2693 69.8042L74.7837 81.6507C75.5708 83.0823 77.3689 83.6042 78.8002 82.8173C80.2315 82.0302 80.7536 80.2319 79.9667 78.8006L73.8413 67.6615L74.1706 57.9703V55.3293Z" fill="black"/>
<path d="M67.6166 35.2864C70.4376 35.2864 72.7245 32.9995 72.7245 30.1785C72.7245 27.3574 70.4376 25.0705 67.6166 25.0705C64.7955 25.0705 62.5086 27.3574 62.5086 30.1785C62.5086 32.9995 64.7955 35.2864 67.6166 35.2864Z" fill="black"/>
<path d="M28.6594 32.3844C31.4236 32.3844 33.6644 30.1436 33.6644 27.3794C33.6644 24.6153 31.4236 22.3745 28.6594 22.3745C25.8953 22.3745 23.6545 24.6153 23.6545 27.3794C23.6545 30.1436 25.8953 32.3844 28.6594 32.3844Z" fill="black"/>
<path d="M45.7672 41.0029L35.2632 40.7613L30.5184 36.5701L34.7015 38.6325L34.6312 38.1916L41.0568 33.0601C41.2438 32.9107 41.4076 32.7344 41.5428 32.5369L47.4718 23.873C48.225 22.7724 47.9434 21.2695 46.8427 20.5163C45.7419 19.7631 44.2392 20.0447 43.4859 21.1454L37.7609 29.5112L32.0079 34.1056H25.3644C24.1977 34.1056 23.204 34.9534 23.0203 36.1055L19.0166 61.2137C18.8941 61.9821 19.457 62.7681 20.3643 62.7681H22.2382V80.2853C22.2382 81.8858 23.5355 83.1832 25.136 83.1832C26.7365 83.1832 28.0338 81.8858 28.0338 80.2853V62.7681H30.7491L31.9874 67.208L29.3478 79.6856C28.9671 81.4853 30.3405 83.1838 32.1858 83.1838C33.526 83.1838 34.7296 82.2487 35.018 80.8852L37.8047 67.7131C37.9011 67.2568 37.886 66.784 37.7609 66.3347L36.7661 62.7681H36.9776C37.7488 62.7681 38.442 62.0899 38.2985 61.1902L36.1272 47.5737L34.2251 47.53C33.8562 47.4572 32.3463 47.809 31.4287 46.4348L27.3211 40.19L32.727 44.9651C33.154 45.3424 33.7006 45.5565 34.2702 45.5695L45.6561 45.8314C45.675 45.8319 45.6938 45.832 45.7126 45.832C47.0206 45.832 48.0956 44.7871 48.1258 43.4728C48.1565 42.1394 47.1004 41.0336 45.7672 41.0029Z" fill="black"/>
</g>
</g>
<defs>
<clipPath id="clip0_181_58">
<rect width="130" height="140" fill="white"/>
</clipPath>
</defs>
</svg>
